<?xml version="1.0" standalone="no"?>
<!DOCTYPE svg PUBLIC "-//W3C//DTD SVG 20010904//EN"
 "http://www.w3.org/TR/2001/REC-SVG-20010904/DTD/svg10.dtd">
<svg version="1.0" xmlns="http://www.w3.org/2000/svg"
 width="160.000000pt" height="160.000000pt" viewBox="0 0 160.000000 160.000000"
 preserveAspectRatio="xMidYMid meet">
<metadata>
Created by potrace 1.14, written by Peter Selinger 2001-2017
</metadata>
<g transform="translate(0.000000,160.000000) scale(0.100000,-0.100000)"
fill="#000000" stroke="none">
<path d="M763 1380 c-30 -12 -55 -54 -51 -86 3 -26 0 -28 -62 -40 -65 -14
-104 -29 -127 -51 -7 -6 -30 -14 -52 -18 -32 -5 -42 -12 -50 -35 -5 -16 -7
-38 -4 -49 9 -35 -93 -201 -124 -201 -5 0 -26 35 -45 79 -36 81 -87 156 -124
183 -19 15 -22 14 -50 -10 -57 -53 -57 -52 -20 -133 19 -41 44 -117 56 -169
11 -52 26 -115 32 -140 35 -150 184 -352 334 -456 114 -78 303 -115 442 -85
136 30 261 114 355 241 18 25 70 74 116 109 93 72 146 143 175 235 14 45 17
82 14 184 -3 113 -7 132 -30 177 -33 63 -77 97 -132 100 -71 4 -97 -14 -194
-129 -29 -35 -43 -24 -46 34 -3 43 -14 56 -56 66 -14 3 -36 12 -50 20 -47 28
-91 45 -133 50 -64 8 -68 10 -58 36 11 29 -12 72 -46 87 -28 13 -40 13 -70 1z
m689 -287 c41 -37 53 -220 22 -320 -13 -40 -32 -72 -64 -105 -51 -53 -70 -60
-70 -25 -1 58 -14 138 -32 192 -38 115 -25 185 49 259 29 29 62 29 95 -1z"/>
</g>
</svg>
