<svg xmlns:xlink="http://www.w3.org/1999/xlink" width="20.00000279252663" xmlns="http://www.w3.org/2000/svg" id="screenshot" version="1.1" viewBox="-0.000001396263769493089 -0.0000013962635421194136 20.00000279252663 20.000002792527084" height="20.000002792527084" style="-webkit-print-color-adjust: exact;"><g id="shape-56e2d070-5e5c-11ec-b664-4579766b773e" width="24" height="24"><g id="shape-56e43000-5e5c-11ec-b664-4579766b773e"><path fill="currentColor" fill-rule="evenodd" clip-rule="evenodd" d="M-4.547473508864641e-13,10C-4.547473508864641e-13,4.477149999999938,4.477149999999483,0,9.999999999999545,0C15.522799999999506,0,19.999999999999545,4.477149999999938,19.999999999999545,10C19.999999999999545,15.522799999999961,15.522799999999506,20,9.999999999999545,20C4.477149999999483,20,-4.547473508864641e-13,15.522799999999961,-4.547473508864641e-13,10ZZM9.999999999999545,2C5.58171999999945,2,1.9999999999995453,5.581719999999905,1.9999999999995453,10C1.9999999999995453,14.418300000000045,5.58171999999945,18,9.999999999999545,18C14.41829999999959,18,17.999999999999545,14.418300000000045,17.999999999999545,10C17.999999999999545,5.581719999999905,14.41829999999959,2,9.999999999999545,2ZZ" style="fill: rgb(114, 114, 119); fill-opacity: 1;"/></g><g id="shape-56e51a60-5e5c-11ec-b664-4579766b773e"><path fill="currentColor" fill-rule="evenodd" clip-rule="evenodd" d="M10.999999999999545,5C10.999999999999545,4.44771999999989,10.552299999999605,4,9.999999999999545,4C9.447699999999486,4,8.999999999999545,4.44771999999989,8.999999999999545,5L8.999999999999545,9L4.999999999999545,9C4.4477199999994355,9,3.9999999999995453,9.44769999999994,3.9999999999995453,10C3.9999999999995453,10.55230000000006,4.4477199999994355,11,4.999999999999545,11L8.999999999999545,11L8.999999999999545,15C8.999999999999545,15.55230000000006,9.447699999999486,16,9.999999999999545,16C10.552299999999605,16,10.999999999999545,15.55230000000006,10.999999999999545,15L10.999999999999545,11L14.999999999999545,11C15.552299999999605,11,15.999999999999545,10.55230000000006,15.999999999999545,10C15.999999999999545,9.44769999999994,15.552299999999605,9,14.999999999999545,9L10.999999999999545,9L10.999999999999545,5ZZ" style="fill: rgb(114, 114, 119); fill-opacity: 1;"/></g></g></svg>