<svg xmlns:xlink="http://www.w3.org/1999/xlink" width="20.000012915434127" xmlns="http://www.w3.org/2000/svg" id="screenshot" version="1.1" viewBox="3.490222297841683e-7 -0.49999963901564115 20.000012915434127 20.00000886963653" height="20.00000886963653" style="-webkit-print-color-adjust: exact;"><g id="shape-f3363590-5e55-11ec-9ddc-a3a015c16779" width="24" height="24"><g id="shape-f3363591-5e55-11ec-9ddc-a3a015c16779"><path fill-rule="evenodd" clip-rule="evenodd" d="M10.00000694636583,17.500003449385986C14.418306946366101,17.500003522441602,18.00000688385444,13.918304184471708,18.000006806739293,9.50000492808067C18.000006729625966,5.08172567168549,14.418306667113029,1.5000062152730607,10.000006667112757,1.5000061422178987C5.581726667112889,1.5000060691627368,2.000006729625966,5.081725407129397,2.000006806739293,9.500004663524123C2.0000068838544394,13.918303919915616,5.581726946365961,17.500003376330824,10.00000694636583,17.500003449385986ZL10.00000694636583,17.500003449385986ZM10.000006981273145,19.500003112781997C15.522806981273789,19.50000320410072,20.00000690313027,15.022804031651958,20.000006806739293,9.500004961149898C20.000006710347407,3.9771558906568316,15.522806632206994,-0.49999342985984185,10.00000663220635,-0.4999935211785669C4.47715663220697,-0.4999936124972919,0.000006710347406624351,3.977155559961375,0.000006806739293097053,9.500004630454441C0.000006903130270075053,15.022803700956956,4.477156981273765,19.50000302146327,10.000006981273145,19.500003112781997ZL10.000006981273145,19.500003112781997Z" style="fill: rgb(0, 0, 0); fill-opacity: 1; opacity: 0;"/></g><g id="shape-df2ecc60-5e55-11ec-9ddc-a3a015c16779"><path fill-rule="evenodd" clip-rule="evenodd" d="M8,12.671629999999823L18.48530000000028,2.186279000000013L19.899500000000444,3.600590000000011L9.41417999999976,14.085700000000088L8,15.5L6.58582000000024,14.085700000000088L1.3431399999999485,8.8432600000001L2.7573899999997593,7.428960000000188L8,12.671629999999823ZL8,12.671629999999823Z" style="fill: rgb(0, 0, 0);"/></g></g></svg>