<svg xmlns:xlink="http://www.w3.org/1999/xlink" width="73.47027241263095" xmlns="http://www.w3.org/2000/svg" id="screenshot" version="1.1" viewBox="-2.2707172320224345e-7 -8.086171874310821e-7 73.47027241263095 80.00000496705161" height="80.00000496705161" style="-webkit-print-color-adjust: exact;"><g id="shape-cb9c9ca7-5d78-11ec-9ddc-a3a015c16779"><path d="M18.36794506904198,76.36985811103204L11.143778977467719,76.36985811103204C11.143778977467719,73.44407097270232,11.468866451588838,70.35574010446453,12.949820500361511,70.35574010446453L12.949820500361511,69.92229015804605L8.651441675876413,69.92229015804605L8.651441675876413,70.35574010446453C10.114335309418948,70.35574010446453,10.457483198770205,73.46213138713574,10.457483198770205,76.38791852546638L4.642029495052157,76.38791852546638C2.221933854373219,76.38791852546638,0.7771006360590036,75.53907904706102,0.7771006360590036,73.38988972939933C0.7951610512886873,68.76642363426163,2.8540483873880476,66.81589887537393,4.912935723485134,66.81589887537393L4.912935723485134,66.38244892895545L0.7048589751439067,66.38244892895545C0.5238249375697706,66.35538084990276,0.340153616142743,66.41048857979058,0.20392270640149945,66.53274708315257C0.06769179666252967,66.65500558651365,-0.006893352776387474,66.83166647412509,0.0005027812162552436,67.01456343414975L0.0005027812162552436,79.98194099785815L0.3978319162520165,79.98194099785815C0.3978319162520165,78.97055778954746,2.2038734391453545,78.48292659982599,3.1610754462799378,78.48292659982599L18.349884653815025,78.48292659982599C19.343207491404883,78.48292659982599,21.02282610769589,78.98861820398179,21.02282610769589,80.00000141229339L21.456276073190566,80.00000141229339L21.456276073190566,74.90696454186673L21.02282610769589,74.90696454186673C21.040886522925575,75.84610609244191,19.343207491404883,76.36985811103204,18.36794506904198,76.36985811103204ZM23.695767561579032,51.482607020793694L19.61411371983968,50.43510298361252L19.505751228464305,50.85049251559758C21.09506776861099,51.265882047582636,23.0094717828797,53.90270255496671,21.907786453914014,58.255262433594C21.34791358181701,60.42251216569093,20.30040949853901,60.9101433554124,17.988676349234538,60.33221009351928L11.793953925709957,58.74289362331547C12.516370534866383,55.92546897158991,13.437451711543417,52.96356100439243,14.972587006002414,53.324769293075406L15.080949497375514,52.90937976108944L11.035416486094164,51.87993613834351L10.927053994720154,52.36756732806498C12.426068458721602,52.74683603118228,11.884256001855647,55.81710648498574,11.179899807925722,58.65259155114563L5.382506519437811,57.09939590980957C3.0165921244465608,56.50340223348303,1.9690880411681064,55.56426068290784,2.528960913266019,53.306708878640165C3.64870665745957,48.936088585579455,6.484191848401679,47.52737625971713,8.199931295152055,47.97888662057176L8.308293786525155,47.56349708858579L3.9376733011217766,46.44375139366912C3.522283750857241,46.33538890706495,3.4861629203983284,46.58823470914285,3.395860844253548,46.96750341225925L0.14498610304599424,59.59173310171991L0.5603756533114392,59.59173310171991C0.8132214665170068,58.61647072227606,2.51090049803679,58.52616865010623,3.468102505170009,58.77901445218413L18.44018672995753,62.58976189778605C19.39738873709348,62.82454728542962,20.82416154017892,63.69144717826839,20.571315726972443,64.68476997214657L20.986705277239707,64.79313245875073L24.183398772759574,52.15084235485665C24.217785286859453,51.83560022529764,24.00647355376077,51.54602490009074,23.695767561579032,51.482607020793694ZM28.644321334306824,34.95732781355946C24.851634136229677,32.266326062872395,16.489661885232636,39.81557929634164,12.859518424217185,37.23294003225965C12.043134169017776,36.60650261781393,11.517893725320846,35.673915932865384,11.405378859359644,34.65105356003642C11.292863993397077,33.62819118720927,11.602829366985588,32.603731866401176,12.263524721662634,31.814815702019587C14.069566244556427,29.214116023503266,17.681649290344012,30.65894917823516,18.259582577668425,31.074338710220218C18.259582577668425,31.074338710220218,19.37932832186334,30.65894917823516,19.18066375434546,29.773988870961148C18.67497212793387,27.408074580090215,14.503016210050646,27.191349606880067,11.577228942962392,31.327184512298118C9.446099945947935,34.307152893929015,9.554462437321945,37.23294003225965,12.227403891203721,39.12928354784344C17.356561816222438,42.74136643467136,24.219519603218032,34.54193828157349,28.1747505383546,37.32324210443221C30.067126784226275,38.983174134844376,30.299031168472084,41.84599364887072,28.698502579994056,43.788870471851624C27.653105081133617,45.25016613497883,25.935645350132745,46.0786744471734,24.14123915509299,45.98730957364569C22.346832960053234,45.8959447001198,20.722406520007098,44.89727925839361,19.83083870258588,43.337360110997906C19.44079889037812,44.79805257587395,20.058096801144075,46.34129728487187,21.34791358181701,47.130047142167314C23.29843842654236,48.52069905359349,27.14530687030674,47.59961791745354,29.04165046934486,44.96279741007038C32.003558566889296,40.80890209021982,31.245021127273958,36.79949008584117,28.644321334306824,34.95732781355946ZM39.9501412676218,29.57532431218624L32.003558566889296,17.29424249697513C30.667087839947726,15.126992764878196,30.793510746550055,14.44069701638091,31.497866940478616,14.007247069962432C32.413935331529046,13.233473538910403,33.6239142005893,12.901669169893466,34.806537753163866,13.099932521452502C35.98916130573889,13.298195873011537,37.02477454614291,14.006467137930485,37.63840811831642,15.036690692709271L37.999616422896,14.801905305063883L35.52533953653074,11.424607805881351C35.442899979642334,11.271802719563311,35.29962473008163,11.161039918330061,35.13098313260616,11.119739937094892C34.96234153513069,11.078439955855174,34.784098195938896,11.11046351433015,34.64037919031398,11.207882832671203L23.533223824519155,18.432048606325225C23.386505984056384,18.52653290247963,23.28691946203253,18.678980296131158,23.259348690145544,18.851297612844974C23.231777918257194,19.02361492955879,23.278827390706283,19.19952408129484,23.388740502687142,19.33506932803266L25.429567423557728,22.94715221485876L25.790775728135486,22.71236682721519C25.087809621579254,21.726838510406196,24.860833963318328,20.47921217921703,25.17166008985805,19.309248720697724C25.48248621639732,18.13928526217751,26.29874668667526,17.168817173836942,27.39815268350958,16.662127991779016C28.066388046981956,16.22867804536054,28.770744240909153,16.318980117531282,30.197517043995504,18.468169435193886L38.162160159956784,30.695070007103823C38.66785178636701,31.489728242205274,39.20966424323478,33.277709271184904,38.39694555793176,33.7834008753407L38.63173095590855,34.14460916402277L42.91204936516624,31.38136575560111L42.677263967190356,31.020157466917226C41.82842445143069,31.63421155767901,40.4738933092608,30.38804296172202,39.9501412676218,29.57532431218624ZM51.72553199688764,24.500347856193912L47.445213587629496,10.052016308886778C47.04788445259328,8.733606055194286,47.15624694396729,7.252652071596458,48.095388535870825,6.981745855083318L47.968965629268496,6.566356323097352L43.14683476314303,7.993129063394008L43.273257669744,8.408518595379974C44.2304596768804,8.119551964434322,45.205722099241484,9.690808020201985,45.494688742905055,10.6299495707799L49.79306756739197,25.078281118087034C50.063973795824495,26.03548308309564,50.082034211053724,27.84152452651051,49.12483220392096,28.130491157456163L49.25125511052329,28.54588068944031L54.14562763756476,27.082987120275902L54.01920473096288,26.667597588290846C53.00782147814198,26.956564219236498,52.0144986405503,25.439489406770917,51.72553199688764,24.500347856193912ZM43.03847227176993,6.25932927771737C43.16489517837272,6.25932927771737,43.3635597458906,6.25932927771737,43.58028472863634,5.934241817903057L47.192367774423474,1.5997423537100985C47.354911511484715,1.4010777949351905,47.49939483331673,1.0037486773844648,47.28266985056962,0.7870237041743167L46.59637407186892,0.08266754124451836C46.48973522414644,0.00933040016934683,46.35755584167464,-0.016741649731557118,46.23105646790373,0.010609565015329281C46.10455709413418,0.037960779763125174,45.994955251910596,0.11630984891689877,45.928138708398365,0.22715085671734414L42.76756604333468,5.789758502431141C42.64114313673235,5.988423061206049,42.76756604333468,6.205148034415288,42.875928534709146,6.241268863283949L43.03847227176993,6.25932927771737ZM72.02543871421085,7.631920774712853C72.02543871421085,6.638597980834675,72.45888867970598,4.850616951855045,73.47027193252688,4.8325565374207144L73.47027193252688,4.399106591002237L69.55116182784741,4.489408663171162L69.55116182784741,4.922858609591458C70.50836383498199,4.922858609591458,71.06823670707763,6.728900053005418,71.08629712230686,7.649981189146274L71.61004916394586,22.477581439571622L58.96775850369204,5.067341925065193C58.8204495923419,4.855428196531648,58.575499892546304,4.732953352022378,58.31758355545071,4.74225446525179L55.57240044065111,4.74225446525179L55.57240044065111,5.229885654973259C56.67408576961543,5.229885654973259,56.85468992190499,6.403812593192015,57.27007947216998,7.0359270983854L57.50486487014632,23.091635530331587C57.50486487014632,24.084958324209765,57.0714149046521,25.836818524320734,56.06003165183256,25.854878938755064L56.06003165183256,26.28832888517445L60.015262586969584,26.198026813003708L60.015262586969584,25.76457686658432C59.02193974937791,25.76457686658432,58.49818770773845,24.048837495341104,58.48012729250877,23.073575115898166L58.06473774224423,8.101491549999082C60.412591722006255,11.605211950221928,64.98187677492706,17.27618208254171,68.01602653338841,21.66486279003493C69.09300155777191,23.205395552503433,70.30155765754353,24.64962002817356,71.62810957917509,25.98130183979265L72.20604286650132,25.98130183979265L72.02543871421085,7.631920774712853Z" style="fill: rgb(255, 255, 255); opacity: 0.96;"/></g></svg>