<svg xmlns:xlink="http://www.w3.org/1999/xlink" width="43.76720526315785" xmlns="http://www.w3.org/2000/svg" id="screenshot" version="1.1" viewBox="-0.12600681092681043 -0.38362033029579834 43.76720526315785 43.76727242105301" height="43.76727242105301" style="-webkit-print-color-adjust: exact;"><g id="shape-4e341320-5cbe-11ec-90ff-510e072dab7c" width="24" height="24"><g id="shape-4e36ab30-5cbe-11ec-90ff-510e072dab7c"><path fill="currentColor" fill-rule="evenodd" clip-rule="evenodd" d="M33.033782662756494,29.50732577496774C38.69310897854666,22.23922051180989,38.18178266275754,11.724077353915163,31.500498452231113,5.042607880230662C24.265508978547587,-2.1923630671381034,12.535201610126023,-2.1923630671381034,5.300235294336744,5.042607880230662C-1.9347541793486016,12.277597353915098,-1.9347541793486016,24.00778893286224,5.300235294336744,31.242778406546677C11.98170476802079,37.92429419602013,22.496940557493872,38.435388932862224,29.76504582065172,32.776294196020444C29.79630897854622,32.81172577496773,29.8289616101265,32.846462617072575,29.8627721364428,32.88027314338888L39.68797213644211,42.70524156444117C40.592287925914206,43.60978893286256,42.0586458206526,43.60978893286256,42.96296161012651,42.70524156444117C43.867277399600425,41.800925774967254,43.867277399600425,40.33479945917816,42.96296161012651,39.43025209075722L33.13799318907331,29.605283669704477C33.10395108380908,29.57147314338863,33.069214241704685,29.538820511809718,33.033782662756494,29.50732577496774ZZM28.22527739959878,8.317643669704466C33.6516352943363,13.743862617072864,33.6516352943363,22.541431038125666,28.22527739959878,27.96778893286273C22.799151083809193,33.39391524865141,14.001466873283789,33.39391524865141,8.575247925915392,27.96778893286273C3.1490058206527465,22.541431038125666,3.1490058206527465,13.743862617072864,8.575247925915392,8.317643669704466C14.001466873283789,2.8914015644413666,22.799151083809193,2.8914015644413666,28.22527739959878,8.317643669704466ZZ" style="fill: rgb(0, 0, 0); fill-opacity: 1;"/></g></g></svg>