<svg width="33" height="33" viewBox="0 0 11 11" fill="none" xmlns="http://www.w3.org/2000/svg">
<path fill-rule="evenodd" clip-rule="evenodd" d="M4.5 0C2.01472 0 0 2.01472 0 4.5C0 6.98528 2.01472 9 4.5 9C5.49005 9 6.40542 8.68028 7.1485 8.13845L10.0101 11C10.2834 11.2734 10.7266 11.2734 11 11C11.2734 10.7266 11.2734 10.2834 11 10.0101L8.13845 7.1485C8.68028 6.40542 9 5.49005 9 4.5C9 2.01472 6.98528 0 4.5 0ZM1 4.5C1 2.567 2.567 1 4.5 1C6.433 1 8 2.567 8 4.5C8 6.433 6.433 8 4.5 8C2.567 8 1 6.433 1 4.5Z" fill="#0E1523"/>
</svg>